<?xml version="1.0"?>
<svg xmlns="http://www.w3.org/2000/svg" xmlns:xlink="http://www.w3.org/1999/xlink" xmlns:svgjs="http://svgjs.com/svgjs" version="1.1" width="512" height="512" x="0" y="0" viewBox="0 0 64 64" style="enable-background:new 0 0 512 512" xml:space="preserve" class=""><g><path xmlns="http://www.w3.org/2000/svg" d="m21 29h5v2h-5z" fill="#ff9f23" data-original="#000000" style="" class=""/><path xmlns="http://www.w3.org/2000/svg" d="m8 29h11v2h-11z" fill="#ff9f23" data-original="#000000" style="" class=""/><path xmlns="http://www.w3.org/2000/svg" d="m8 10h2v2h-2z" fill="#ff9f23" data-original="#000000" style="" class=""/><path xmlns="http://www.w3.org/2000/svg" d="m8 33h18v2h-18z" fill="#ff9f23" data-original="#000000" style="" class=""/><path xmlns="http://www.w3.org/2000/svg" d="m8 37h18v2h-18z" fill="#ff9f23" data-original="#000000" style="" class=""/><path xmlns="http://www.w3.org/2000/svg" d="m8 41h18v2h-18z" fill="#ff9f23" data-original="#000000" style="" class=""/><path xmlns="http://www.w3.org/2000/svg" d="m21 14h5v2h-5z" fill="#ff9f23" data-original="#000000" style="" class=""/><path xmlns="http://www.w3.org/2000/svg" d="m8 14h11v2h-11z" fill="#ff9f23" data-original="#000000" style="" class=""/><path xmlns="http://www.w3.org/2000/svg" d="m21 18h5v2h-5z" fill="#ff9f23" data-original="#000000" style="" class=""/><path xmlns="http://www.w3.org/2000/svg" d="m8 18h11v2h-11z" fill="#ff9f23" data-original="#000000" style="" class=""/><path xmlns="http://www.w3.org/2000/svg" d="m8 25h2v2h-2z" fill="#ff9f23" data-original="#000000" style="" class=""/><path xmlns="http://www.w3.org/2000/svg" d="m60.879 22.536c.723-.724 1.121-1.685 1.121-2.707 0-2.112-1.718-3.829-3.828-3.829-1.023 0-1.984.398-2.707 1.122l-1.465 1.464v-2.586c0-2.757-2.243-5-5-5h-11v-4c0-2.757-2.243-5-5-5h-24c-2.757 0-5 2.243-5 5v47h-1c-.553 0-1 .448-1 1v2c0 2.757 2.243 5 5 5h19c2.206 0 4-1.794 4-4v-4.586l22-22v20.586h-8v2h8v2h-14v2h22v2h-28v2h29c.553 0 1-.448 1-1v-4c0-.552-.447-1-1-1h-7v-26.586zm-34.879 29.464v-2.586l28-28 2.586 2.586-28 28zm30.879-33.465c.341-.34.811-.535 1.293-.535 1.008 0 1.828.82 1.828 1.829 0 .488-.19.948-.535 1.293l-1.465 1.464-2.586-2.586zm-4.879-2.535v4.586l-22 22v-18.586h11c2.757 0 5-2.243 5-5v-3c0-1.654 1.346-3 3-3s3 1.346 3 3zm-6.974-3c-.635.838-1.026 1.87-1.026 3v3c0 1.654-1.346 3-3 3s-3-1.346-3-3v-6zm-9.026-6v12c0 1.13.391 2.162 1.026 3h-7.026v-15c0-1.654 1.346-3 3-3s3 1.346 3 3zm-29 53c-1.654 0-3-1.346-3-3v-1h18v2c0 .728.195 1.411.537 2zm19 0c-1.103 0-2-.897-2-2v-3c0-.552-.447-1-1-1h-17v-47c0-1.654 1.346-3 3-3h20.026c-.635.838-1.026 1.87-1.026 3v37.586l-3.707 3.707c-.188.187-.293.442-.293.707v4c0 .552.447 1 1 1h3v4c0 1.103-.897 2-2 2z" fill="#ff9f23" data-original="#000000" style="" class=""/></g></svg>
