<svg width="442" height="174" viewBox="0 0 442 174" fill="none" xmlns="http://www.w3.org/2000/svg">
<path d="M22.5 118.062H9.5625V15.4062H22.5V118.062ZM155.391 118.062H141.891L132.328 86.5625H99.7031L90.2812 118.062H76.6406L109.406 15.4062H122.766L155.391 118.062ZM128.812 74.8906L116.156 32.7031L103.359 74.8906H128.812ZM205.875 56.4688C202.312 56.4688 199.219 56.7969 196.594 57.4531C193.969 58.1094 191.484 59.0938 189.141 60.4062C186.891 61.8125 184.781 63.7812 182.812 66.3125C180.938 68.75 179.672 71.6094 179.016 74.8906C178.172 78.9219 177.75 83.2812 177.75 87.9688V118.062H165.375V45.5H177.75V57.7344C179.438 54.6406 182.578 51.4531 187.172 48.1719C191.859 45.3594 198.094 43.9062 205.875 43.8125V56.4688ZM215.719 45.5H228.375V92.0469C228.375 97.0156 229.547 101.234 231.891 104.703C233.766 107.234 236.812 108.5 241.031 108.5C244.781 108.5 248.156 106.766 251.156 103.297C254.156 99.8281 256.359 94.625 257.766 87.6875C258.141 85.9062 258.422 84.2188 258.609 82.625C258.797 80.9375 258.891 79.1562 258.891 77.2812V45.5H271.406V118.062H258.891V108.781C257.953 110.281 256.406 112.109 254.25 114.266C249.844 117.922 245.109 119.75 240.047 119.75C232.547 119.75 226.688 117.688 222.469 113.562C217.969 109.156 215.719 102.641 215.719 94.0156V45.5ZM332.578 98.6562C332.578 101.656 332.016 104.516 330.891 107.234C329.766 109.859 328.219 112.016 326.25 113.703C323.906 115.672 320.766 117.172 316.828 118.203C312.984 119.141 308.766 119.609 304.172 119.609C298.828 119.609 292.078 118.344 283.922 115.812V102.312C286.641 104.188 289.969 105.781 293.906 107.094C297.844 108.312 301.266 108.922 304.172 108.922C309.047 108.922 312.656 108.312 315 107.094C318.281 105.125 319.922 102.547 319.922 99.3594C319.922 97.2031 319.312 95.375 318.094 93.875C316.969 92.375 315.422 91.0625 313.453 89.9375C311.391 88.8125 308.625 87.5938 305.156 86.2812C301.781 84.875 298.5 83.375 295.312 81.7812C292.594 80.4688 290.062 78.3594 287.719 75.4531C285.375 72.5469 284.203 68.75 284.203 64.0625C284.203 57.5938 286.5 52.625 291.094 49.1562C295.688 45.5937 301.688 43.8125 309.094 43.8125C315.188 43.8125 321.656 44.9375 328.5 47.1875V59.8438C325.781 58.3438 322.688 57.0312 319.219 55.9062C315.75 54.6875 312.094 54.0781 308.25 54.0781C305.062 54.0781 302.297 54.875 299.953 56.4688C297.703 57.9688 296.578 60.0781 296.578 62.7969C296.578 64.6719 296.906 66.2188 297.562 67.4375C298.312 68.6562 299.625 69.9219 301.5 71.2344C303.188 72.2656 306 73.5781 309.938 75.1719C313.969 76.7656 317.438 78.3125 320.344 79.8125C323.625 81.5 326.484 83.8906 328.922 86.9844C331.359 90.0781 332.578 93.9688 332.578 98.6562Z" fill="white"/>
<path d="M136.625 163.25H131V159.938C130.583 160.479 129.646 161.208 128.188 162.125C127.146 162.708 125.979 163.167 124.688 163.5C123.438 163.792 121.958 163.938 120.25 163.938C119.417 163.938 118.458 163.75 117.375 163.375C116.292 162.958 115.375 162.375 114.625 161.625C113.792 160.875 113.146 159.979 112.688 158.938C112.271 157.854 112.062 156.646 112.062 155.312C112.062 152.896 112.708 150.812 114 149.062C115.292 147.271 116.875 146.042 118.75 145.375C120 144.917 121.312 144.583 122.688 144.375C124.104 144.167 125.312 144.062 126.312 144.062H131V141.438C131 141.021 130.917 140.417 130.75 139.625C130.625 138.792 130.333 138.021 129.875 137.312C129.458 136.646 128.812 136.083 127.938 135.625C127.062 135.125 126.021 134.875 124.812 134.875C123.271 134.875 121.917 135.312 120.75 136.188C119.625 137.062 119.062 138.333 119.062 140H112.812C112.812 138.583 113.042 137.333 113.5 136.25C114 135.167 114.729 134.188 115.688 133.312C116.688 132.396 117.979 131.667 119.562 131.125C121.146 130.542 122.896 130.25 124.812 130.25C128.688 130.25 131.625 131.312 133.625 133.438C135.625 135.562 136.625 138.146 136.625 141.188V163.25ZM131 151.125V148.375C130.375 148.375 129.458 148.396 128.25 148.438C127.083 148.438 125.625 148.604 123.875 148.938C122.375 149.188 121.042 149.75 119.875 150.625C118.5 151.75 117.812 153.104 117.812 154.688C117.812 156.354 118.25 157.542 119.125 158.25C120 158.917 121.083 159.25 122.375 159.25C122.875 159.25 123.583 159.146 124.5 158.938C125.417 158.688 126.229 158.333 126.938 157.875C128.438 156.875 129.604 155.667 130.438 154.25C130.812 153.458 131 152.417 131 151.125ZM161.812 135.875C160.229 135.875 158.854 136.021 157.688 136.312C156.521 136.604 155.417 137.042 154.375 137.625C153.375 138.25 152.438 139.125 151.562 140.25C150.729 141.333 150.167 142.604 149.875 144.062C149.5 145.854 149.312 147.792 149.312 149.875V163.25H143.812V131H149.312V136.438C150.062 135.062 151.458 133.646 153.5 132.188C155.583 130.938 158.354 130.292 161.812 130.25V135.875ZM163.5 146.688C163.5 144.562 163.75 142.542 164.25 140.625C164.792 138.667 165.583 136.938 166.625 135.438C167.708 133.896 169.083 132.646 170.75 131.688C172.417 130.729 174.292 130.25 176.375 130.25C179.583 130.25 182.208 131.646 184.25 134.438V131H189.812V173.875H184.25V159.875C183.792 160.458 182.854 161.25 181.438 162.25C180.021 163.208 178.229 163.688 176.062 163.688C174.354 163.688 172.688 163.312 171.062 162.562C169.438 161.771 168.083 160.625 167 159.125C166 157.792 165.167 156.062 164.5 153.938C163.833 151.812 163.5 149.396 163.5 146.688ZM169.25 147C169.25 148.667 169.438 150.25 169.812 151.75C170.229 153.208 170.792 154.5 171.5 155.625C172.125 156.75 172.917 157.604 173.875 158.188C174.833 158.729 175.792 159 176.75 159C177.667 159 178.583 158.708 179.5 158.125C180.458 157.542 181.271 156.688 181.938 155.562C182.604 154.438 183.146 153.146 183.562 151.688C183.979 150.229 184.188 148.667 184.188 147C184.188 145.333 183.979 143.771 183.562 142.312C183.146 140.812 182.604 139.521 181.938 138.438C181.271 137.396 180.458 136.562 179.5 135.938C178.583 135.271 177.667 134.938 176.75 134.938C175.792 134.938 174.833 135.25 173.875 135.875C172.958 136.458 172.167 137.292 171.5 138.375C170.792 139.458 170.229 140.75 169.812 142.25C169.438 143.75 169.25 145.333 169.25 147ZM197.062 131H202.688V151.688C202.688 153.896 203.208 155.771 204.25 157.312C205.083 158.438 206.438 159 208.312 159C209.979 159 211.479 158.229 212.812 156.688C214.146 155.146 215.125 152.833 215.75 149.75C215.917 148.958 216.042 148.208 216.125 147.5C216.208 146.75 216.25 145.958 216.25 145.125V131H221.812V163.25H216.25V159.125C215.833 159.792 215.146 160.604 214.188 161.562C212.229 163.188 210.125 164 207.875 164C204.542 164 201.938 163.083 200.062 161.25C198.062 159.292 197.062 156.396 197.062 152.562V131ZM235.5 124.625H228.812V117.625H235.5V124.625ZM235.125 163.25H229.312V131H235.125V163.25ZM258.625 135.688H250.562V152.438C250.562 153.396 250.562 154.292 250.562 155.125C250.562 155.917 250.75 156.708 251.125 157.5C251.375 158.083 251.771 158.521 252.312 158.812C252.896 159.062 253.667 159.188 254.625 159.188C255.583 159.188 256.875 159.042 258.5 158.75V163.625C257.083 163.833 255.458 163.938 253.625 163.938C250.708 163.938 248.521 163.25 247.062 161.875C245.646 160.5 244.938 158.479 244.938 155.812V135.688H240.062V131H244.938V123.875L250.562 120.938V131H258.625V135.688ZM268.125 144.375H282.25C282.25 141.667 281.854 139.458 281.062 137.75C280.604 136.917 279.938 136.229 279.062 135.688C278.229 135.146 277.25 134.875 276.125 134.875C273.875 134.875 271.979 135.875 270.438 137.875C269.146 139.5 268.375 141.667 268.125 144.375ZM268.25 149.062V149.25C268.375 150.208 268.604 151.167 268.938 152.125C269.354 153.208 269.917 154.292 270.625 155.375C271.333 156.417 272.333 157.312 273.625 158.062C274.042 158.354 274.688 158.625 275.562 158.875C276.479 159.083 277.542 159.188 278.75 159.188C279.625 159.188 280.75 159.062 282.125 158.812C283.5 158.521 285.167 157.812 287.125 156.688V161.5C285.292 162.625 283.396 163.354 281.438 163.688C279.521 164.021 277.583 164.083 275.625 163.875C273.917 163.708 272.229 163.229 270.562 162.438C268.896 161.604 267.542 160.625 266.5 159.5C265.292 158.042 264.271 156.229 263.438 154.062C262.604 151.854 262.188 149.312 262.188 146.438C262.188 144.062 262.479 141.896 263.062 139.938C263.688 137.979 264.583 136.292 265.75 134.875C266.917 133.5 268.354 132.396 270.062 131.562C271.812 130.688 273.833 130.25 276.125 130.25C278 130.25 279.771 130.646 281.438 131.438C283.146 132.229 284.458 133.271 285.375 134.562C287.125 136.938 288 140.583 288 145.5V149.062H268.25ZM318.188 141.625H312.25C312.25 139.792 311.75 138.208 310.75 136.875C309.75 135.542 308.271 134.875 306.312 134.875C304.062 134.875 302.146 135.896 300.562 137.938C299.021 139.979 298.25 142.833 298.25 146.5C298.25 147.375 298.312 148.292 298.438 149.25C298.562 150.208 298.792 151.167 299.125 152.125C299.5 153.25 300.042 154.333 300.75 155.375C301.5 156.417 302.521 157.312 303.812 158.062C304.229 158.354 304.875 158.625 305.75 158.875C306.667 159.083 307.729 159.188 308.938 159.188C309.812 159.188 310.938 159.062 312.312 158.812C313.688 158.521 315.354 157.812 317.312 156.688V161.5C315.479 162.625 313.583 163.354 311.625 163.688C309.708 164.021 307.771 164.083 305.812 163.875C304.104 163.708 302.417 163.229 300.75 162.438C299.083 161.604 297.729 160.625 296.688 159.5C295.479 158.042 294.458 156.229 293.625 154.062C292.792 151.854 292.375 149.312 292.375 146.438C292.375 144.062 292.667 141.896 293.25 139.938C293.875 137.979 294.771 136.292 295.938 134.875C297.104 133.417 298.562 132.292 300.312 131.5C302.104 130.667 304.146 130.25 306.438 130.25C308.104 130.25 309.625 130.5 311 131C312.417 131.5 313.646 132.229 314.688 133.188C315.729 134.104 316.562 135.25 317.188 136.625C317.854 137.958 318.188 139.625 318.188 141.625ZM340.125 135.688H332.062V152.438C332.062 153.396 332.062 154.292 332.062 155.125C332.062 155.917 332.25 156.708 332.625 157.5C332.875 158.083 333.271 158.521 333.812 158.812C334.396 159.062 335.167 159.188 336.125 159.188C337.083 159.188 338.375 159.042 340 158.75V163.625C338.583 163.833 336.958 163.938 335.125 163.938C332.208 163.938 330.021 163.25 328.562 161.875C327.146 160.5 326.438 158.479 326.438 155.812V135.688H321.562V131H326.438V123.875L332.062 120.938V131H340.125V135.688ZM365.688 147.125C365.688 145.458 365.5 143.812 365.125 142.188C364.75 140.562 364.188 139.208 363.438 138.125C362.729 137 361.854 136.167 360.812 135.625C359.771 135.083 358.708 134.812 357.625 134.812C356.542 134.812 355.479 135.083 354.438 135.625C353.396 136.167 352.521 137 351.812 138.125C351.062 139.208 350.5 140.562 350.125 142.188C349.75 143.812 349.562 145.458 349.562 147.125C349.562 148.792 349.75 150.438 350.125 152.062C350.5 153.646 351.062 154.979 351.812 156.062C352.521 157.188 353.396 158.021 354.438 158.562C355.479 159.062 356.542 159.312 357.625 159.312C358.708 159.312 359.771 159.062 360.812 158.562C361.854 158.021 362.729 157.188 363.438 156.062C364.188 154.979 364.75 153.646 365.125 152.062C365.5 150.438 365.688 148.792 365.688 147.125ZM371.562 147.125C371.562 149.417 371.229 151.625 370.562 153.75C369.896 155.875 368.979 157.688 367.812 159.188C366.521 160.729 364.979 161.917 363.188 162.75C361.396 163.542 359.542 163.938 357.625 163.938C355.708 163.938 353.854 163.542 352.062 162.75C350.271 161.917 348.729 160.729 347.438 159.188C346.271 157.688 345.354 155.875 344.688 153.75C344.021 151.625 343.688 149.417 343.688 147.125C343.688 144.833 344.021 142.625 344.688 140.5C345.354 138.375 346.271 136.542 347.438 135C348.729 133.417 350.271 132.229 352.062 131.438C353.854 130.646 355.708 130.25 357.625 130.25C359.542 130.25 361.396 130.646 363.188 131.438C364.979 132.229 366.521 133.417 367.812 135C368.979 136.542 369.896 138.375 370.562 140.5C371.229 142.625 371.562 144.833 371.562 147.125ZM397.188 154.625C397.188 155.958 396.938 157.229 396.438 158.438C395.938 159.604 395.25 160.562 394.375 161.312C393.333 162.188 391.938 162.854 390.188 163.312C388.479 163.729 386.604 163.938 384.562 163.938C382.188 163.938 379.188 163.375 375.562 162.25V156.25C376.771 157.083 378.25 157.792 380 158.375C381.75 158.917 383.271 159.188 384.562 159.188C386.729 159.188 388.333 158.917 389.375 158.375C390.833 157.5 391.562 156.354 391.562 154.938C391.562 153.979 391.292 153.167 390.75 152.5C390.25 151.833 389.562 151.25 388.688 150.75C387.771 150.25 386.542 149.708 385 149.125C383.5 148.5 382.042 147.833 380.625 147.125C379.417 146.542 378.292 145.604 377.25 144.312C376.208 143.021 375.688 141.333 375.688 139.25C375.688 136.375 376.708 134.167 378.75 132.625C380.792 131.042 383.458 130.25 386.75 130.25C389.458 130.25 392.333 130.75 395.375 131.75V137.375C394.167 136.708 392.792 136.125 391.25 135.625C389.708 135.083 388.083 134.812 386.375 134.812C384.958 134.812 383.729 135.167 382.688 135.875C381.688 136.542 381.188 137.479 381.188 138.688C381.188 139.521 381.333 140.208 381.625 140.75C381.958 141.292 382.542 141.854 383.375 142.438C384.125 142.896 385.375 143.479 387.125 144.188C388.917 144.896 390.458 145.583 391.75 146.25C393.208 147 394.479 148.062 395.562 149.438C396.646 150.812 397.188 152.542 397.188 154.625Z" fill="black"/>
</svg>
