<svg width="165" height="41" viewBox="0 0 165 41" fill="none" xmlns="http://www.w3.org/2000/svg">
<g clip-path="url(#clip0)">
<rect width="165" height="41" fill="white" fill-opacity="0.62"/>
<path d="M16.9033 7.32422C16.6579 7.52734 16.3913 7.69661 16.1035 7.83203C15.8158 7.95898 15.4941 8.02246 15.1387 8.02246C14.7832 8.02246 14.4404 7.96322 14.1104 7.84473C13.7803 7.72624 13.4925 7.5612 13.2471 7.34961C12.7139 6.89258 12.4473 6.30859 12.4473 5.59766C12.4473 4.50586 13.3613 3.69336 15.1895 3.16016C15.8073 2.97396 16.3151 2.88086 16.7129 2.88086C17.1107 2.88086 17.4069 2.92741 17.6016 3.02051C17.8047 3.10514 17.9697 3.2194 18.0967 3.36328C18.3506 3.65104 18.4775 3.94727 18.4775 4.25195C18.4775 4.54818 18.4395 4.81901 18.3633 5.06445C18.2956 5.3099 18.194 5.5638 18.0586 5.82617C17.9232 6.08854 17.7581 6.35091 17.5635 6.61328C17.3688 6.87565 17.1488 7.11263 16.9033 7.32422ZM13.7041 21.3018C13.0609 21.6318 12.4346 21.8942 11.8252 22.0889C11.2158 22.292 10.6149 22.3936 10.0225 22.3936C9.43848 22.3936 8.8291 22.2539 8.19434 21.9746C7.56803 21.6868 7.00944 21.306 6.51855 20.832C5.42676 19.7741 4.88086 18.5977 4.88086 17.3027C4.88086 16.1094 5.23633 14.8991 5.94727 13.6719C6.59896 12.5632 7.42839 11.6322 8.43555 10.8789C9.44271 10.1257 10.3779 9.74902 11.2412 9.74902C12.4769 9.74902 13.137 10.096 13.2217 10.79C13.2471 11.0016 13.2598 11.2471 13.2598 11.5264C13.2598 11.8057 13.1921 12.1273 13.0566 12.4912C12.9297 12.8467 12.7604 13.2064 12.5488 13.5703C12.3457 13.9258 12.1172 14.277 11.8633 14.624C11.6178 14.9626 11.3809 15.2715 11.1523 15.5508C10.7122 16.084 10.361 16.4691 10.0986 16.7061C10.0986 16.9938 10.3145 17.29 10.7461 17.5947C11.1523 17.8825 11.4951 18.0264 11.7744 18.0264C12.0622 18.0264 12.3965 17.9587 12.7773 17.8232C13.1667 17.6878 13.5645 17.5059 13.9707 17.2773C14.3854 17.0488 14.8044 16.7865 15.2275 16.4902C15.6592 16.194 16.0824 15.8893 16.4971 15.5762L18.8203 13.7607C19.7428 13.0921 20.4919 12.7578 21.0674 12.7578C21.2959 12.7578 21.4694 12.8424 21.5879 13.0117C21.7148 13.1725 21.7783 13.363 21.7783 13.583C21.7783 13.8031 21.6683 14.1077 21.4482 14.4971C21.2282 14.8779 20.9235 15.3011 20.5342 15.7666C20.1533 16.2321 19.7048 16.7188 19.1885 17.2266C18.6722 17.7344 18.1136 18.2337 17.5127 18.7246C16.9118 19.2155 16.2855 19.6852 15.6338 20.1338C14.9906 20.5739 14.3473 20.9632 13.7041 21.3018ZM22.1267 18.906H27.1587L24.6257 12.446L22.1267 18.906ZM28.3657 22L27.5497 19.909H21.7357L20.9367 22H19.4407L23.5547 11.426H25.7137L29.8447 22H28.3657ZM34.7516 13.755H36.5196V14.792H34.5306C33.7939 14.792 33.4256 15.217 33.4256 16.067V22H31.9636V13.755H33.4256V14.792C33.6069 14.1007 34.0489 13.755 34.7516 13.755ZM44.3594 13.755H45.8214V22H44.3594V21.456C44.212 21.8187 43.9004 22 43.4244 22H39.3954C38.5 22 38.0524 21.5523 38.0524 20.657V13.755H39.5144V20.47C39.5144 20.6967 39.5484 20.844 39.6164 20.912C39.6844 20.9687 39.826 20.997 40.0414 20.997H43.7814C43.9854 20.997 44.1327 20.9517 44.2234 20.861C44.314 20.7703 44.3594 20.6173 44.3594 20.402V13.755ZM54.5076 20.487V18.923C54.5076 18.7077 54.4736 18.566 54.4056 18.498C54.3489 18.43 54.2073 18.396 53.9806 18.396H50.0536C49.1583 18.396 48.7106 17.9483 48.7106 17.053V15.098C48.7106 14.2027 49.1583 13.755 50.0536 13.755H54.5756C55.4709 13.755 55.9186 14.2027 55.9186 15.098V15.982H54.4906V15.268C54.4906 15.0413 54.4566 14.8997 54.3886 14.843C54.3206 14.775 54.1789 14.741 53.9636 14.741H50.6826C50.4559 14.741 50.3086 14.775 50.2406 14.843C50.1839 14.8997 50.1556 15.0413 50.1556 15.268V16.866C50.1556 17.0927 50.1839 17.24 50.2406 17.308C50.3086 17.3647 50.4559 17.393 50.6826 17.393H54.6096C55.5049 17.393 55.9526 17.8407 55.9526 18.736V20.657C55.9526 21.5523 55.5049 22 54.6096 22H50.0876C49.1923 22 48.7446 21.5523 48.7446 20.657V19.773H50.1896V20.487C50.1896 20.7023 50.2179 20.844 50.2746 20.912C50.3426 20.98 50.4899 21.014 50.7166 21.014H53.9806C54.2073 21.014 54.3489 20.98 54.4056 20.912C54.4736 20.844 54.5076 20.7023 54.5076 20.487ZM65.0915 18.906H70.1235L67.5905 12.446L65.0915 18.906ZM71.3305 22L70.5145 19.909H64.7005L63.9015 22H62.4055L66.5195 11.426H68.6785L72.8095 22H71.3305ZM77.7164 13.755H79.4844V14.792H77.4954C76.7588 14.792 76.3904 15.217 76.3904 16.067V22H74.9284V13.755H76.3904V14.792C76.5718 14.1007 77.0138 13.755 77.7164 13.755ZM83.6012 20.997H87.5112C87.7152 20.997 87.8626 20.9517 87.9532 20.861C88.0439 20.7703 88.0892 20.6173 88.0892 20.402V15.353C88.0892 15.1377 88.0439 14.9847 87.9532 14.894C87.8626 14.8033 87.7152 14.758 87.5112 14.758H83.6012C83.3746 14.758 83.2272 14.792 83.1592 14.86C83.1026 14.928 83.0742 15.0697 83.0742 15.285V20.47C83.0742 20.6967 83.1026 20.844 83.1592 20.912C83.2272 20.9687 83.3746 20.997 83.6012 20.997ZM88.0892 13.755H89.5512V24.397H88.0892V21.456C87.9419 21.8187 87.6302 22 87.1542 22H82.9552C82.0599 22 81.6122 21.5523 81.6122 20.657V15.098C81.6122 14.2027 82.0599 13.755 82.9552 13.755H87.1542C87.6302 13.755 87.9419 13.9363 88.0892 14.299V13.755ZM98.0322 13.755H99.4942V22H98.0322V21.456C97.8849 21.8187 97.5732 22 97.0972 22H93.0682C92.1729 22 91.7252 21.5523 91.7252 20.657V13.755H93.1872V20.47C93.1872 20.6967 93.2212 20.844 93.2892 20.912C93.3572 20.9687 93.4989 20.997 93.7142 20.997H97.4542C97.6582 20.997 97.8056 20.9517 97.8962 20.861C97.9869 20.7703 98.0322 20.6173 98.0322 20.402V13.755ZM104.185 22H102.723V13.755H104.185V22ZM102.689 12.072V10.61H104.236V12.072H102.689ZM111.43 14.758H109.356V20.385C109.356 20.6003 109.39 20.742 109.458 20.81C109.526 20.878 109.667 20.912 109.883 20.912H111.413V22H109.237C108.341 22 107.894 21.5523 107.894 20.657V14.758H106.568V13.755H107.894V12.327H109.356V13.755H111.43V14.758ZM114.935 17.274H119.967V15.285C119.967 15.0697 119.933 14.928 119.865 14.86C119.797 14.792 119.656 14.758 119.44 14.758H115.462C115.247 14.758 115.105 14.792 115.037 14.86C114.969 14.928 114.935 15.0697 114.935 15.285V17.274ZM114.816 13.755H120.069C120.965 13.755 121.412 14.2027 121.412 15.098V18.277H114.935V20.47C114.935 20.6967 114.969 20.844 115.037 20.912C115.105 20.9687 115.247 20.997 115.462 20.997H119.389C119.616 20.997 119.758 20.9687 119.814 20.912C119.882 20.844 119.916 20.6967 119.916 20.47V19.671H121.361V20.657C121.361 21.5523 120.914 22 120.018 22H114.816C113.921 22 113.473 21.5523 113.473 20.657V15.098C113.473 14.2027 113.921 13.755 114.816 13.755ZM131.547 16.441H130.085V15.285C130.085 15.0697 130.051 14.928 129.983 14.86C129.915 14.792 129.774 14.758 129.558 14.758H125.954C125.739 14.758 125.597 14.792 125.529 14.86C125.461 14.928 125.427 15.0697 125.427 15.285V20.47C125.427 20.6967 125.461 20.844 125.529 20.912C125.597 20.9687 125.739 20.997 125.954 20.997H129.558C129.774 20.997 129.915 20.9687 129.983 20.912C130.051 20.844 130.085 20.6967 130.085 20.47V19.314H131.547V20.657C131.547 21.5523 131.1 22 130.204 22H125.308C124.413 22 123.965 21.5523 123.965 20.657V15.098C123.965 14.2027 124.413 13.755 125.308 13.755H130.204C131.1 13.755 131.547 14.2027 131.547 15.098V16.441ZM138.108 14.758H136.034V20.385C136.034 20.6003 136.068 20.742 136.136 20.81C136.204 20.878 136.346 20.912 136.561 20.912H138.091V22H135.915C135.02 22 134.572 21.5523 134.572 20.657V14.758H133.246V13.755H134.572V12.327H136.034V13.755H138.108V14.758ZM146.527 20.47V15.285C146.527 15.0697 146.493 14.928 146.425 14.86C146.368 14.792 146.227 14.758 146 14.758H142.124C141.897 14.758 141.75 14.792 141.682 14.86C141.625 14.928 141.597 15.0697 141.597 15.285V20.47C141.597 20.6967 141.625 20.844 141.682 20.912C141.75 20.9687 141.897 20.997 142.124 20.997H146C146.227 20.997 146.368 20.9687 146.425 20.912C146.493 20.844 146.527 20.6967 146.527 20.47ZM141.495 13.755H146.629C147.524 13.755 147.972 14.2027 147.972 15.098V20.657C147.972 21.5523 147.524 22 146.629 22H141.495C140.6 22 140.152 21.5523 140.152 20.657V15.098C140.152 14.2027 140.6 13.755 141.495 13.755ZM156.491 20.487V18.923C156.491 18.7077 156.457 18.566 156.389 18.498C156.332 18.43 156.191 18.396 155.964 18.396H152.037C151.142 18.396 150.694 17.9483 150.694 17.053V15.098C150.694 14.2027 151.142 13.755 152.037 13.755H156.559C157.454 13.755 157.902 14.2027 157.902 15.098V15.982H156.474V15.268C156.474 15.0413 156.44 14.8997 156.372 14.843C156.304 14.775 156.162 14.741 155.947 14.741H152.666C152.439 14.741 152.292 14.775 152.224 14.843C152.167 14.8997 152.139 15.0413 152.139 15.268V16.866C152.139 17.0927 152.167 17.24 152.224 17.308C152.292 17.3647 152.439 17.393 152.666 17.393H156.593C157.488 17.393 157.936 17.8407 157.936 18.736V20.657C157.936 21.5523 157.488 22 156.593 22H152.071C151.176 22 150.728 21.5523 150.728 20.657V19.773H152.173V20.487C152.173 20.7023 152.201 20.844 152.258 20.912C152.326 20.98 152.473 21.014 152.7 21.014H155.964C156.191 21.014 156.332 20.98 156.389 20.912C156.457 20.844 156.491 20.7023 156.491 20.487ZM23.1458 34.18H26.1058L24.6158 30.38L23.1458 34.18ZM26.8158 36L26.3358 34.77H22.9158L22.4458 36H21.5658L23.9858 29.78H25.2558L27.6858 36H26.8158ZM30.5722 31.15H31.6122V31.76H30.4422C30.0089 31.76 29.7922 32.01 29.7922 32.51V36H28.9322V31.15H29.7922V31.76C29.8989 31.3533 30.1589 31.15 30.5722 31.15ZM34.0339 35.41H36.3339C36.4539 35.41 36.5405 35.3833 36.5939 35.33C36.6472 35.2767 36.6739 35.1867 36.6739 35.06V32.09C36.6739 31.9633 36.6472 31.8733 36.5939 31.82C36.5405 31.7667 36.4539 31.74 36.3339 31.74H34.0339C33.9005 31.74 33.8139 31.76 33.7739 31.8C33.7405 31.84 33.7239 31.9233 33.7239 32.05V35.1C33.7239 35.2333 33.7405 35.32 33.7739 35.36C33.8139 35.3933 33.9005 35.41 34.0339 35.41ZM36.6739 31.15H37.5339V37.41H36.6739V35.68C36.5872 35.8933 36.4039 36 36.1239 36H33.6539C33.1272 36 32.8639 35.7367 32.8639 35.21V31.94C32.8639 31.4133 33.1272 31.15 33.6539 31.15H36.1239C36.4039 31.15 36.5872 31.2567 36.6739 31.47V31.15ZM42.5227 31.15H43.3827V36H42.5227V35.68C42.436 35.8933 42.2527 36 41.9727 36H39.6027C39.076 36 38.8127 35.7367 38.8127 35.21V31.15H39.6727V35.1C39.6727 35.2333 39.6927 35.32 39.7327 35.36C39.7727 35.3933 39.856 35.41 39.9827 35.41H42.1827C42.3027 35.41 42.3894 35.3833 42.4427 35.33C42.496 35.2767 42.5227 35.1867 42.5227 35.06V31.15ZM46.1422 36H45.2822V31.15H46.1422V36ZM45.2622 30.16V29.3H46.1722V30.16H45.2622ZM50.4036 31.74H49.1836V35.05C49.1836 35.1767 49.2036 35.26 49.2436 35.3C49.2836 35.34 49.3669 35.36 49.4936 35.36H50.3936V36H49.1136C48.5869 36 48.3236 35.7367 48.3236 35.21V31.74H47.5436V31.15H48.3236V30.31H49.1836V31.15H50.4036V31.74ZM52.4657 33.22H55.4257V32.05C55.4257 31.9233 55.4057 31.84 55.3657 31.8C55.3257 31.76 55.2423 31.74 55.1157 31.74H52.7757C52.649 31.74 52.5657 31.76 52.5257 31.8C52.4857 31.84 52.4657 31.9233 52.4657 32.05V33.22ZM52.3957 31.15H55.4857C56.0123 31.15 56.2757 31.4133 56.2757 31.94V33.81H52.4657V35.1C52.4657 35.2333 52.4857 35.32 52.5257 35.36C52.5657 35.3933 52.649 35.41 52.7757 35.41H55.0857C55.219 35.41 55.3023 35.3933 55.3357 35.36C55.3757 35.32 55.3957 35.2333 55.3957 35.1V34.63H56.2457V35.21C56.2457 35.7367 55.9823 36 55.4557 36H52.3957C51.869 36 51.6057 35.7367 51.6057 35.21V31.94C51.6057 31.4133 51.869 31.15 52.3957 31.15ZM62.2375 32.73H61.3775V32.05C61.3775 31.9233 61.3575 31.84 61.3175 31.8C61.2775 31.76 61.1942 31.74 61.0675 31.74H58.9475C58.8209 31.74 58.7375 31.76 58.6975 31.8C58.6575 31.84 58.6375 31.9233 58.6375 32.05V35.1C58.6375 35.2333 58.6575 35.32 58.6975 35.36C58.7375 35.3933 58.8209 35.41 58.9475 35.41H61.0675C61.1942 35.41 61.2775 35.3933 61.3175 35.36C61.3575 35.32 61.3775 35.2333 61.3775 35.1V34.42H62.2375V35.21C62.2375 35.7367 61.9742 36 61.4475 36H58.5675C58.0409 36 57.7775 35.7367 57.7775 35.21V31.94C57.7775 31.4133 58.0409 31.15 58.5675 31.15H61.4475C61.9742 31.15 62.2375 31.4133 62.2375 31.94V32.73ZM66.0969 31.74H64.8769V35.05C64.8769 35.1767 64.8969 35.26 64.9369 35.3C64.9769 35.34 65.0602 35.36 65.1869 35.36H66.0869V36H64.8069C64.2802 36 64.0169 35.7367 64.0169 35.21V31.74H63.2369V31.15H64.0169V30.31H64.8769V31.15H66.0969V31.74ZM71.009 31.15H71.869V36H71.009V35.68C70.9224 35.8933 70.739 36 70.459 36H68.089C67.5624 36 67.299 35.7367 67.299 35.21V31.15H68.159V35.1C68.159 35.2333 68.179 35.32 68.219 35.36C68.259 35.3933 68.3424 35.41 68.469 35.41H70.669C70.789 35.41 70.8757 35.3833 70.929 35.33C70.9824 35.2767 71.009 35.1867 71.009 35.06V31.15ZM75.3086 31.15H76.3486V31.76H75.1786C74.7452 31.76 74.5286 32.01 74.5286 32.51V36H73.6686V31.15H74.5286V31.76C74.6352 31.3533 74.8952 31.15 75.3086 31.15ZM78.4202 35.41H80.6202C80.7402 35.41 80.8269 35.3833 80.8802 35.33C80.9335 35.2767 80.9602 35.1867 80.9602 35.06V32.09C80.9602 31.9633 80.9335 31.8733 80.8802 31.82C80.8269 31.7667 80.7402 31.74 80.6202 31.74H78.4202C78.2935 31.74 78.2102 31.76 78.1702 31.8C78.1302 31.84 78.1102 31.9233 78.1102 32.05V35.1C78.1102 35.2333 78.1302 35.32 78.1702 35.36C78.2102 35.3933 78.2935 35.41 78.4202 35.41ZM80.9602 31.15H81.8202V36H80.9602V35.68C80.8735 35.8933 80.6902 36 80.4102 36H78.0402C77.5135 36 77.2502 35.7367 77.2502 35.21V31.94C77.2502 31.4133 77.5135 31.15 78.0402 31.15H80.4102C80.6902 31.15 80.8735 31.2567 80.9602 31.47V31.15ZM87.6039 37.41H86.6539V36.82H87.3139C87.6672 36.82 87.9072 36.6967 88.0339 36.45L88.2539 36H87.9539L85.8239 31.15H86.6939L88.5139 35.41L90.2939 31.15H91.1639L88.7739 36.55C88.6472 36.8433 88.5005 37.06 88.3339 37.2C88.1672 37.34 87.9239 37.41 87.6039 37.41ZM95.0795 29.78H95.9595V36H95.0795V29.78ZM99.3757 31.15H101.736C102.262 31.15 102.526 31.4133 102.526 31.94V36H101.666V32.05C101.666 31.9233 101.646 31.84 101.606 31.8C101.572 31.76 101.489 31.74 101.356 31.74H99.1657C99.0457 31.74 98.959 31.7667 98.9057 31.82C98.8523 31.8733 98.8257 31.9633 98.8257 32.09V32.42H98.8157V36H97.9557V31.15H98.8157V31.5C98.889 31.2667 99.0757 31.15 99.3757 31.15ZM105.295 35.41H107.495C107.615 35.41 107.702 35.3833 107.755 35.33C107.809 35.2767 107.835 35.1867 107.835 35.06V32.09C107.835 31.9633 107.809 31.8733 107.755 31.82C107.702 31.7667 107.615 31.74 107.495 31.74H105.295C105.169 31.74 105.085 31.76 105.045 31.8C105.005 31.84 104.985 31.9233 104.985 32.05V35.1C104.985 35.2333 105.005 35.32 105.045 35.36C105.085 35.3933 105.169 35.41 105.295 35.41ZM108.695 35.87H108.705V36.62C108.705 37.1467 108.442 37.41 107.915 37.41H104.295V36.82H107.535C107.662 36.82 107.745 36.8 107.785 36.76C107.825 36.72 107.845 36.6367 107.845 36.51V35.98H107.835V35.68C107.749 35.8933 107.565 36 107.285 36H104.915C104.389 36 104.125 35.7367 104.125 35.21V31.94C104.125 31.4133 104.389 31.15 104.915 31.15H107.285C107.565 31.15 107.749 31.2567 107.835 31.47V31.15H108.695V35.87ZM111.157 33.22H114.117V32.05C114.117 31.9233 114.097 31.84 114.057 31.8C114.017 31.76 113.934 31.74 113.807 31.74H111.467C111.34 31.74 111.257 31.76 111.217 31.8C111.177 31.84 111.157 31.9233 111.157 32.05V33.22ZM111.087 31.15H114.177C114.704 31.15 114.967 31.4133 114.967 31.94V33.81H111.157V35.1C111.157 35.2333 111.177 35.32 111.217 35.36C111.257 35.3933 111.34 35.41 111.467 35.41H113.777C113.91 35.41 113.994 35.3933 114.027 35.36C114.067 35.32 114.087 35.2333 114.087 35.1V34.63H114.937V35.21C114.937 35.7367 114.674 36 114.147 36H111.087C110.56 36 110.297 35.7367 110.297 35.21V31.94C110.297 31.4133 110.56 31.15 111.087 31.15ZM117.989 31.15H120.349C120.876 31.15 121.139 31.4133 121.139 31.94V36H120.279V32.05C120.279 31.9233 120.259 31.84 120.219 31.8C120.186 31.76 120.102 31.74 119.969 31.74H117.779C117.659 31.74 117.572 31.7667 117.519 31.82C117.466 31.8733 117.439 31.9633 117.439 32.09V32.42H117.429V36H116.569V31.15H117.429V31.5C117.502 31.2667 117.689 31.15 117.989 31.15ZM123.798 36H122.938V31.15H123.798V36ZM122.918 30.16V29.3H123.828V30.16H122.918ZM126.46 33.22H129.42V32.05C129.42 31.9233 129.4 31.84 129.36 31.8C129.32 31.76 129.236 31.74 129.11 31.74H126.77C126.643 31.74 126.56 31.76 126.52 31.8C126.48 31.84 126.46 31.9233 126.46 32.05V33.22ZM126.39 31.15H129.48C130.006 31.15 130.27 31.4133 130.27 31.94V33.81H126.46V35.1C126.46 35.2333 126.48 35.32 126.52 35.36C126.56 35.3933 126.643 35.41 126.77 35.41H129.08C129.213 35.41 129.296 35.3933 129.33 35.36C129.37 35.32 129.39 35.2333 129.39 35.1V34.63H130.24V35.21C130.24 35.7367 129.976 36 129.45 36H126.39C125.863 36 125.6 35.7367 125.6 35.21V31.94C125.6 31.4133 125.863 31.15 126.39 31.15ZM133.512 31.15H134.552V31.76H133.382C132.948 31.76 132.732 32.01 132.732 32.51V36H131.872V31.15H132.732V31.76C132.838 31.3533 133.098 31.15 133.512 31.15ZM136.513 36H135.653V31.15H136.513V36ZM135.633 30.16V29.3H136.543V30.16H135.633ZM139.485 35.41H141.685C141.805 35.41 141.891 35.3833 141.945 35.33C141.998 35.2767 142.025 35.1867 142.025 35.06V32.09C142.025 31.9633 141.998 31.8733 141.945 31.82C141.891 31.7667 141.805 31.74 141.685 31.74H139.485C139.358 31.74 139.275 31.76 139.235 31.8C139.195 31.84 139.175 31.9233 139.175 32.05V35.1C139.175 35.2333 139.195 35.32 139.235 35.36C139.275 35.3933 139.358 35.41 139.485 35.41ZM142.025 31.15H142.885V36H142.025V35.68C141.938 35.8933 141.755 36 141.475 36H139.105C138.578 36 138.315 35.7367 138.315 35.21V31.94C138.315 31.4133 138.578 31.15 139.105 31.15H141.475C141.755 31.15 141.938 31.2567 142.025 31.47V31.15Z" fill="url(#paint0_linear)"/>
</g>
<defs>
<linearGradient id="paint0_linear" x1="97" y1="55.9643" x2="93.9811" y2="-7.66568" gradientUnits="userSpaceOnUse">
<stop stop-color="#020007"/>
<stop offset="1" stop-color="#FF0000"/>
</linearGradient>
<clipPath id="clip0">
<rect width="165" height="41" fill="white"/>
</clipPath>
</defs>
</svg>
